<svg xmlns="http://www.w3.org/2000/svg" version="1.1" x="0" y="0" viewBox="0 0 413 265" enable-background="new 0 0 413 265" xml:space="preserve"><path fill="#F7931E" stroke="#000000" stroke-width="10" stroke-miterlimit="10" d="M300.7 94.4c0 0 43.8-25.4 25.8-71.4 -17 31-57.8 46.6-57.8 46.6L300.7 94.4zM299.8 52.1c0 0 13.9 20.7 24.2 14.2 16-10.1 2.5-43.3 2.5-43.3S305.6 48 299.8 52.1zM260.9 64.2c0 0 19.6-22.1 1.2-44.2 -3.7 20.3-23.5 36.4-23.5 36.4M252.7 41c0 0 11.5 8.9 16 3.4 7-8.5-6.5-24.4-6.5-24.4S255.1 37.7 252.7 41zM114.8 94.4C114.8 94.4 71 69 89 23c17 31 57.8 46.6 57.8 46.6L114.8 94.4z"/><ellipse fill="#CCCCCC" stroke="#000000" stroke-width="10" stroke-miterlimit="10" cx="207.4" cy="138.4" rx="103.6" ry="82.1"/><path fill="#FBB03B" stroke="#000000" stroke-width="10" stroke-miterlimit="10" d="M115.7 52.1c0 0-13.9 20.7-24.2 14.2C75.5 56.2 89 23 89 23S109.9 48 115.7 52.1zM154.7 64.2c0 0-19.6-22.1-1.2-44.2 3.7 20.3 23.5 36.4 23.5 36.4M162.9 41c0 0-11.5 8.9-16 3.4 -7-8.5 6.5-24.4 6.5-24.4S160.4 37.7 162.9 41z"/><ellipse fill="#C1272D" stroke="#000000" stroke-width="10" stroke-miterlimit="10" cx="167.5" cy="130" rx="39.5" ry="24"/><ellipse fill="#0071BC" stroke="#000000" stroke-width="10" stroke-miterlimit="10" cx="248.5" cy="130" rx="39.5" ry="24"/><path stroke="#000000" stroke-width="10" stroke-miterlimit="10" d="M229.4 49.2L184.8 53c0 0-66.2 27.4-79.1 57.1 27.5-23.1 53.5-30.8 53.5-30.8l-9.6 14.9 44.7-25.4 -0.6 14.4 17.3-12.5 5.3 15 10.5-13.3 23.9 17 1.6-14.5 24.1 17.2 4.7-8.4c0 0 22.7 16.4 28.8 28C308.5 92.1 254.1 46.6 229.4 49.2z"/><path fill="#FFFFFF" d="M273.3 181l2.4 6.6 1.3-6.6H273.3zM266.7 233l2.3-11.8 -9.1 11.8H266.7z"/><polygon fill="#FFFFFF" points="232.6 164 218.6 233 195.5 233 209.5 164 "/><path fill="#FFFFFF" d="M185.5 164l-7.4 36.4c-0.2-2.5-0.7-4.9-1.5-7.1 -1-2.8-2.5-5.3-4.5-7.3 -2-2.1-4.3-3.7-7.1-4.8 -2.7-1.1-5.6-1.6-8.8-1.6 -3.6 0-7.2 0.8-10.7 2.3 -3.5 1.5-6.6 3.7-9.3 6.4 -2.7 2.8-5 6.2-6.6 10 -0.5 1.2-1 2.4-1.3 3.7 -0.2-0.5-0.5-1-0.8-1.5 -1.4-2.4-3.6-4.6-6.5-6.5l14.8-13.9 -2.7-3.3c-2.7-3.2-5.9-5.8-9.5-7.6 -3.7-1.9-7.6-2.8-11.6-2.8 -3.4 0-6.7 0.6-9.7 1.7 -3 1.1-5.7 2.8-8 4.8 -2.3 2-4.1 4.4-5.5 7.1 -1.4 2.8-2.1 5.9-2.1 9.2 0 4.4 1 8.2 3 11.1 1 1.5 2.2 2.9 3.6 4.1l-17 13.4 2.6 3.5c3.4 4.5 7.3 7.8 11.6 9.8 4.2 1.9 8.5 2.9 12.7 2.9 3.9 0 7.5-0.6 10.7-1.8 3.3-1.2 6.1-2.8 8.4-4.9 2.4-2.1 4.2-4.6 5.5-7.4 0.1-0.2 0.2-0.4 0.3-0.6 0.1 0.4 0.2 0.7 0.4 1.1 1 2.8 2.5 5.2 4.5 7.2 1.9 2.1 4.3 3.7 7.1 4.8 2.7 1.1 5.6 1.6 8.8 1.6 3.6 0 7.2-0.8 10.7-2.3 3.4-1.5 6.6-3.7 9.3-6.5 2.2-2.2 4.1-4.9 5.6-7.9l-3.1 15.5h23.1l14-69H185.5zM110.8 187.5c0.2 0 0.5-0.1 0.9-0.1 1 0 1.9 0.2 2.6 0.7 1.2 0.7 2.4 1.7 3.6 2.9l2.5 2.5c-0.1 0-0.1-0.1-0.2-0.1l-5.2-3.2C113.3 189.2 111.9 188.3 110.8 187.5zM308.8 209.2l9.3 23.8H294l-2.7-8 -4.8 8h-19.8l2.3-11.8 -9.1 11.8H247v-1.5c0 0 0 0 0 0 -3.1 1.7-6.3 2.6-9.7 2.6 -5 0-8.7-1.5-11.2-4.4 -2.3-2.7-3.5-6.6-3.5-11.4 0-2.3 0.3-4.5 0.8-7l6.1-30.3h23.1l-6.1 30.4c-0.1 0.5-0.2 0.9-0.3 1.4 0.4-0.3 1-0.7 1.8-1.6l5.9-30.2h19.4l2.4 6.6 1.3-6.6H297l2.3 7 3.5-7h26.3L308.8 209.2z"/><path fill="#FFFFFF" d="M273.3 181l2.4 6.6 1.3-6.6H273.3zM266.7 233l2.3-11.8 -9.1 11.8H266.7z"/><path d="M123.2 202.1c1.3 2.2 2 5.2 2 8.7 0 2.8-0.6 5.5-1.7 7.9 -1.1 2.4-2.7 4.6-4.8 6.5 -2.1 1.8-4.6 3.3-7.5 4.3 -2.9 1-6.1 1.6-9.6 1.6 -3.8 0-7.7-0.9-11.5-2.6 -3.8-1.8-7.3-4.7-10.4-8.9l-0.9-1.2 12.3-9.7L92 210c1.4 1.9 3.1 3.4 5 4.6 1.9 1.1 3.7 1.7 5.6 1.7 1.7 0 3-0.3 3.9-1 0.8-0.6 1.2-1.4 1.2-2.5 0-0.8-0.3-1.3-1.1-1.8 -1.2-0.8-2.7-1.8-4.6-3l-4.9-3c-2.8-1.8-5-3.9-6.6-6.3 -1.6-2.5-2.5-5.6-2.5-9.5 0-2.8 0.6-5.4 1.8-7.8 1.2-2.4 2.8-4.5 4.8-6.2 2-1.8 4.4-3.2 7-4.2s5.6-1.5 8.7-1.5c3.5 0 7 0.8 10.2 2.5 3.2 1.6 6.1 3.9 8.5 6.9l0.9 1.1L119.2 190l-1-1c-1.4-1.4-2.8-2.5-4.1-3.3 -1.3-0.8-2.6-1.2-4.2-1.2 -1.6 0-2.8 0.3-3.5 1 -0.7 0.7-1 1.4-1 2.4 0 0.4 0.1 1 1.1 1.7 1.2 0.8 2.9 1.9 5.2 3.3l5.2 3.2C119.7 197.8 121.8 199.9 123.2 202.1z"/><path d="M172 194.2c-0.9-2.4-2.2-4.5-3.8-6.2 -1.6-1.8-3.7-3.1-6-4.1 -2.3-0.9-4.9-1.4-7.7-1.4 -3.2 0-6.4 0.7-9.5 2 -3.1 1.3-5.9 3.3-8.4 5.8 -2.5 2.5-4.5 5.6-6 9.1 -1.5 3.6-2.3 7.6-2.3 12 0 2.9 0.5 5.6 1.4 7.9 0.9 2.4 2.2 4.5 3.8 6.2 1.7 1.8 3.7 3.1 6 4.1 2.3 0.9 4.9 1.4 7.7 1.4 3.2 0 6.4-0.7 9.5-2 3.1-1.4 5.9-3.3 8.4-5.8 2.5-2.5 4.5-5.6 6-9.1s2.3-7.6 2.3-12C173.3 199.3 172.9 196.6 172 194.2zM151.4 216c-0.9 0.6-1.7 0.9-2.7 0.9 -1.5 0-2.1-0.6-2.4-1.2 -0.6-1-0.9-2.5-0.9-4.4 0-2.2 0.2-4.3 0.7-6.1 0.4-1.9 1-3.4 1.8-4.7 0.7-1.2 1.5-2.2 2.5-2.9 0.8-0.6 1.7-0.9 2.7-0.9 1.2 0 1.9 0.4 2.4 1.2 0.6 1 1 2.5 1 4.4 0 2.3-0.2 4.3-0.7 6.2 -0.4 1.8-1 3.4-1.8 4.7C153.1 214.4 152.3 215.3 151.4 216z"/><polygon points="203.1 167 190.3 230 173.3 230 186.1 167 "/><polygon points="227.1 167 214.3 230 197.3 230 210.1 167 "/><path d="M303.5 208.8l8.3 21.2h-17.5l-2.6-7.6c-0.4-1.3-0.8-2.5-1.2-3.8 -0.1-0.3-0.1-0.5-0.2-0.8 -0.2 0.4-0.5 0.8-0.7 1.2 -0.8 1.2-1.5 2.5-2.3 3.7l-4.5 7.3h-18.8l19.3-24.8 -7.8-21.2H293l2.5 7.6c0.3 1.2 0.6 2.3 1 3.5 0 0.2 0.1 0.3 0.1 0.4 0.2-0.3 0.3-0.6 0.5-0.9 0.7-1.2 1.4-2.2 2-3.4l3.7-7.3h18.6L303.5 208.8zM271.5 184l-9.1 46H248v-4.1c-1 1.1-2.7 2.1-4.4 3 -2.6 1.5-5.3 2.2-8.2 2.2 -4 0-7-1.1-8.9-3.3 -1.9-2.2-2.8-5.3-2.8-9.5 0-2.1 0.2-4.1 0.7-6.4l5.6-27.9h17l-5.4 26.8c-0.2 0.8-0.3 1.4-0.5 2.1 -0.1 0.5-0.2 0.9-0.2 1.3 0 0.8 0.2 1.3 0.5 1.6 0.3 0.3 0.9 0.5 1.7 0.5 0.8 0 1.7-0.3 2.5-0.9 0.9-0.7 2-1.5 3.2-2.9l5.6-28.5H271.5z"/><path d="M18.3 248.6l-0.8 6.4h-1.1l0.8-6.4 -4.2-9.1h1c0.1 0 0.2 0 0.2 0.1 0.1 0.1 0.1 0.1 0.1 0.2l3.3 7.3c0.1 0.1 0.1 0.2 0.1 0.4s0.1 0.2 0.1 0.4c0.1-0.1 0.1-0.2 0.2-0.4 0.1-0.1 0.1-0.2 0.2-0.4l5.1-7.3c0.1-0.1 0.1-0.1 0.2-0.2 0.1-0.1 0.1-0.1 0.3-0.1h0.9L18.3 248.6zM26.4 255.1c-0.6 0-1.1-0.1-1.6-0.3s-0.9-0.5-1.2-0.9 -0.6-0.9-0.8-1.4 -0.3-1.2-0.3-1.9c0-0.9 0.1-1.7 0.4-2.6 0.3-0.8 0.6-1.5 1.1-2.2 0.5-0.6 1.1-1.1 1.7-1.5 0.7-0.4 1.4-0.6 2.2-0.6 0.6 0 1.1 0.1 1.6 0.3 0.5 0.2 0.9 0.5 1.2 0.9 0.3 0.4 0.6 0.9 0.8 1.4s0.3 1.2 0.3 1.9c0 0.9-0.1 1.7-0.4 2.6 -0.3 0.8-0.6 1.5-1.1 2.2s-1 1.1-1.7 1.5C27.9 255 27.2 255.1 26.4 255.1zM26.5 254.3c0.6 0 1.2-0.2 1.7-0.5 0.5-0.3 1-0.8 1.3-1.3 0.4-0.6 0.7-1.2 0.9-1.9 0.2-0.7 0.3-1.5 0.3-2.2 0-1.2-0.3-2.1-0.8-2.7 -0.5-0.6-1.2-1-2.2-1 -0.4 0-0.8 0.1-1.2 0.2s-0.7 0.4-1 0.6c-0.3 0.3-0.6 0.6-0.9 1s-0.5 0.8-0.6 1.2c-0.2 0.4-0.3 0.9-0.4 1.4s-0.1 1-0.1 1.5c0 1.2 0.3 2.1 0.8 2.7S25.6 254.3 26.5 254.3zM35.8 244.1l-0.8 7c0 0.3-0.1 0.7-0.1 1 0 0.7 0.1 1.3 0.4 1.7s0.7 0.6 1.3 0.6c0.4 0 0.8-0.1 1.2-0.3 0.4-0.2 0.8-0.5 1.2-0.9 0.4-0.4 0.8-0.8 1.1-1.4s0.6-1.1 0.9-1.8l0.7-5.8h1L41.5 255H41c-0.1 0-0.2 0-0.3-0.1 -0.1-0.1-0.1-0.2-0.1-0.3l0.3-3.1c-0.3 0.6-0.6 1.1-1 1.6 -0.4 0.5-0.7 0.8-1.1 1.1 -0.4 0.3-0.8 0.5-1.2 0.7 -0.4 0.2-0.9 0.2-1.3 0.2 -0.8 0-1.4-0.3-1.8-0.8 -0.4-0.5-0.6-1.3-0.6-2.3 0-0.1 0-0.1 0-0.2 0-0.1 0-0.2 0-0.4 0-0.2 0-0.4 0.1-0.8 0-0.3 0.1-0.8 0.2-1.3 0.1-0.6 0.1-1.3 0.2-2.1 0.1-0.9 0.2-1.9 0.4-3.1H35.8zM44.9 255l1.3-11h0.5c0.3 0 0.4 0.1 0.4 0.4l-0.3 3.3c0.5-1.2 1.1-2.1 1.7-2.8 0.6-0.6 1.3-1 2.1-1 0.3 0 0.6 0.1 0.9 0.2l-0.2 1c-0.3-0.1-0.7-0.2-0.9-0.2 -0.8 0-1.5 0.4-2.1 1.2 -0.6 0.8-1.2 1.9-1.6 3.3l-0.7 5.6H44.9zM56.6 255l1.9-16h1l-1.1 8.8c0.3-0.6 0.6-1.1 1-1.6 0.4-0.5 0.7-0.9 1.1-1.2s0.8-0.6 1.2-0.8c0.4-0.2 0.9-0.3 1.3-0.3 0.5 0 0.9 0.1 1.3 0.3 0.4 0.2 0.7 0.4 0.9 0.8 0.2 0.3 0.4 0.7 0.5 1.2s0.2 1 0.2 1.6c0 0.6-0.1 1.1-0.2 1.7 -0.1 0.6-0.3 1.1-0.5 1.7 -0.2 0.5-0.5 1.1-0.8 1.5 -0.3 0.5-0.7 0.9-1.1 1.3 -0.4 0.4-0.8 0.6-1.3 0.9 -0.5 0.2-1 0.3-1.5 0.3 -0.6 0-1.2-0.1-1.7-0.4s-0.9-0.7-1.2-1.3l-0.2 1.2c0 0.1-0.1 0.2-0.1 0.3 -0.1 0.1-0.1 0.1-0.3 0.1H56.6zM62.7 244.7c-0.4 0-0.8 0.1-1.3 0.4 -0.4 0.2-0.8 0.6-1.2 1 -0.4 0.4-0.8 0.9-1.1 1.5 -0.3 0.6-0.6 1.3-0.9 2l-0.4 3.1c0.2 0.3 0.3 0.5 0.5 0.7 0.2 0.2 0.4 0.4 0.6 0.5 0.2 0.1 0.5 0.2 0.7 0.3s0.5 0.1 0.8 0.1c0.5 0 0.9-0.1 1.3-0.3 0.4-0.2 0.8-0.4 1.1-0.8 0.3-0.3 0.6-0.7 0.9-1.1 0.3-0.4 0.5-0.9 0.6-1.4s0.3-1 0.4-1.5c0.1-0.5 0.1-1 0.1-1.5 0-1-0.2-1.7-0.6-2.3S63.5 244.7 62.7 244.7zM75.1 255h-0.5c-0.1 0-0.2 0-0.3-0.1 -0.1-0.1-0.1-0.1-0.1-0.2l0.4-3.4c-0.3 0.6-0.6 1.1-0.9 1.6 -0.3 0.5-0.7 0.9-1.1 1.2 -0.4 0.3-0.8 0.6-1.2 0.8 -0.4 0.2-0.9 0.3-1.3 0.3 -0.5 0-0.9-0.1-1.2-0.3 -0.3-0.2-0.6-0.4-0.9-0.8s-0.4-0.7-0.5-1.2c-0.1-0.5-0.2-1-0.2-1.6 0-0.6 0.1-1.3 0.2-1.9s0.4-1.2 0.7-1.7c0.3-0.5 0.7-1.1 1.1-1.5 0.4-0.5 0.9-0.9 1.4-1.2 0.5-0.3 1-0.6 1.6-0.8 0.6-0.2 1.1-0.3 1.7-0.3 0.4 0 0.9 0 1.2 0.1s0.8 0.2 1.1 0.4L75.1 255zM70.4 254.3c0.4 0 0.8-0.1 1.2-0.4 0.4-0.2 0.8-0.6 1.2-1 0.4-0.4 0.7-0.9 1-1.6 0.3-0.6 0.6-1.3 0.9-2l0.5-4.5c-0.4-0.1-0.9-0.2-1.4-0.2 -0.5 0-1 0.1-1.4 0.2s-0.9 0.4-1.3 0.7c-0.4 0.3-0.8 0.6-1.1 1 -0.3 0.4-0.6 0.8-0.9 1.3 -0.2 0.5-0.4 1-0.6 1.5 -0.1 0.5-0.2 1.1-0.2 1.6 0 1 0.2 1.7 0.5 2.3C69.2 254 69.7 254.3 70.4 254.3zM78.5 255l1.3-11h0.5c0.3 0 0.4 0.1 0.4 0.4l-0.3 3.3c0.5-1.2 1.1-2.1 1.7-2.8 0.6-0.6 1.3-1 2.1-1 0.3 0 0.6 0.1 0.9 0.2l-0.2 1c-0.3-0.1-0.7-0.2-0.9-0.2 -0.8 0-1.5 0.4-2.1 1.2 -0.6 0.8-1.2 1.9-1.6 3.3l-0.7 5.6H78.5zM93.6 246.1c0 0.3 0 0.6-0.1 0.9 -0.1 0.3-0.2 0.5-0.4 0.8 -0.2 0.2-0.5 0.5-0.8 0.7 -0.4 0.2-0.8 0.4-1.4 0.6s-1.2 0.3-2 0.5c-0.8 0.1-1.7 0.3-2.7 0.4 0 0.2 0 0.3 0 0.5 0 0.2 0 0.3 0 0.4 0 1.1 0.2 1.9 0.7 2.6s1.2 0.9 2.2 0.9c0.4 0 0.7 0 1.1-0.1s0.6-0.2 0.8-0.3c0.2-0.1 0.5-0.3 0.6-0.4 0.2-0.1 0.4-0.3 0.5-0.4 0.1-0.1 0.3-0.2 0.4-0.3 0.1-0.1 0.2-0.1 0.3-0.1 0.1 0 0.2 0 0.2 0.1l0.2 0.3c-0.4 0.4-0.7 0.7-1.1 1 -0.3 0.3-0.7 0.5-1 0.7s-0.7 0.3-1.1 0.4 -0.8 0.1-1.2 0.1c-0.6 0-1.1-0.1-1.6-0.3 -0.5-0.2-0.9-0.5-1.2-0.9s-0.6-0.8-0.7-1.4c-0.2-0.5-0.3-1.1-0.3-1.8 0-0.5 0.1-1.1 0.2-1.7 0.1-0.6 0.3-1.1 0.5-1.6s0.5-1 0.8-1.4 0.7-0.8 1.1-1.2 0.9-0.6 1.4-0.8c0.5-0.2 1-0.3 1.6-0.3 0.5 0 1 0.1 1.4 0.2 0.4 0.2 0.7 0.3 0.9 0.6s0.4 0.5 0.5 0.7C93.6 245.7 93.6 245.9 93.6 246.1zM90.7 244.7c-0.6 0-1.1 0.1-1.6 0.4 -0.5 0.2-0.9 0.6-1.3 1 -0.4 0.4-0.7 0.9-0.9 1.4 -0.2 0.5-0.4 1.1-0.5 1.7 0.9-0.1 1.7-0.2 2.4-0.4s1.2-0.3 1.7-0.4 0.8-0.3 1.1-0.5 0.5-0.4 0.7-0.5c0.2-0.2 0.3-0.4 0.3-0.6 0.1-0.2 0.1-0.4 0.1-0.6 0-0.2 0-0.3-0.1-0.5s-0.2-0.3-0.3-0.5c-0.2-0.1-0.4-0.3-0.6-0.4C91.4 244.7 91 244.7 90.7 244.7zM95.5 255l1.9-16h1l-1.9 16H95.5zM101.9 258.6c-0.1 0.2-0.3 0.3-0.5 0.3h-0.7l2.3-4.3 -2.9-10.5h0.8c0.1 0 0.2 0 0.2 0.1 0 0 0.1 0.1 0.1 0.2l2.3 8.5c0 0.1 0 0.2 0.1 0.3 0 0.1 0 0.2 0 0.3 0-0.1 0.1-0.2 0.1-0.3 0-0.1 0.1-0.2 0.2-0.3l4.4-8.5c0-0.1 0.1-0.1 0.2-0.2 0.1 0 0.1-0.1 0.2-0.1h0.8L101.9 258.6zM115.3 253.2c0 0 0-0.1 0-0.2s0-0.2 0-0.3c0-0.1 0-0.3 0.1-0.5 0-0.2 0.1-0.5 0.1-0.8l0.7-6.2h-1.4c-0.1 0-0.2-0.1-0.2-0.2l0.1-0.5 1.7-0.1 0.7-3.9c0-0.1 0-0.1 0.1-0.2 0.1-0.1 0.1-0.1 0.2-0.1h0.5l-0.5 4.2h3.2l-0.1 0.8h-3.2l-0.8 6.2c0 0.3-0.1 0.5-0.1 0.7s0 0.3-0.1 0.5c0 0.1 0 0.2 0 0.3 0 0.1 0 0.1 0 0.1 0 0.5 0.1 0.8 0.3 1 0.2 0.2 0.5 0.3 0.9 0.3 0.2 0 0.5 0 0.6-0.1 0.2-0.1 0.4-0.2 0.5-0.3 0.1-0.1 0.3-0.2 0.3-0.3s0.2-0.1 0.2-0.1c0 0 0.1 0 0.1 0s0 0 0.1 0.1l0.2 0.5c-0.3 0.3-0.6 0.6-1.1 0.8 -0.4 0.2-0.8 0.3-1.3 0.3 -0.6 0-1.1-0.2-1.4-0.5S115.3 253.8 115.3 253.2zM125.3 255.1c-0.6 0-1.1-0.1-1.6-0.3s-0.9-0.5-1.2-0.9c-0.3-0.4-0.6-0.9-0.8-1.4 -0.2-0.6-0.3-1.2-0.3-1.9 0-0.9 0.1-1.7 0.4-2.6 0.3-0.8 0.6-1.5 1.1-2.2 0.5-0.6 1.1-1.1 1.7-1.5 0.7-0.4 1.4-0.6 2.2-0.6 0.6 0 1.1 0.1 1.6 0.3s0.9 0.5 1.2 0.9c0.3 0.4 0.6 0.9 0.8 1.4 0.2 0.6 0.3 1.2 0.3 1.9 0 0.9-0.1 1.7-0.4 2.6 -0.3 0.8-0.6 1.5-1.1 2.2s-1 1.1-1.7 1.5C126.8 255 126.1 255.1 125.3 255.1zM125.4 254.3c0.6 0 1.2-0.2 1.7-0.5 0.5-0.3 1-0.8 1.3-1.3 0.4-0.6 0.7-1.2 0.9-1.9 0.2-0.7 0.3-1.5 0.3-2.2 0-1.2-0.3-2.1-0.8-2.7 -0.5-0.6-1.2-1-2.2-1 -0.4 0-0.8 0.1-1.2 0.2 -0.4 0.2-0.7 0.4-1 0.6 -0.3 0.3-0.6 0.6-0.9 1s-0.5 0.8-0.6 1.2c-0.2 0.4-0.3 0.9-0.4 1.4s-0.1 1-0.1 1.5c0 1.2 0.3 2.1 0.8 2.7C123.7 254 124.4 254.3 125.4 254.3zM132.7 255l1.9-16h1l-1.9 16H132.7zM145.6 246.1c0 0.3 0 0.6-0.1 0.9 -0.1 0.3-0.2 0.5-0.4 0.8 -0.2 0.2-0.5 0.5-0.8 0.7 -0.4 0.2-0.8 0.4-1.4 0.6 -0.6 0.2-1.2 0.3-2 0.5 -0.8 0.1-1.7 0.3-2.7 0.4 0 0.2 0 0.3 0 0.5 0 0.2 0 0.3 0 0.4 0 1.1 0.2 1.9 0.7 2.6s1.2 0.9 2.2 0.9c0.4 0 0.7 0 1.1-0.1s0.6-0.2 0.8-0.3c0.2-0.1 0.5-0.3 0.6-0.4 0.2-0.1 0.4-0.3 0.5-0.4 0.1-0.1 0.3-0.2 0.4-0.3 0.1-0.1 0.2-0.1 0.3-0.1s0.2 0 0.2 0.1l0.2 0.3c-0.4 0.4-0.7 0.7-1 1 -0.3 0.3-0.7 0.5-1 0.7s-0.7 0.3-1.1 0.4c-0.4 0.1-0.8 0.1-1.2 0.1 -0.6 0-1.1-0.1-1.6-0.3 -0.5-0.2-0.9-0.5-1.2-0.9s-0.6-0.8-0.7-1.4c-0.2-0.5-0.3-1.1-0.3-1.8 0-0.5 0.1-1.1 0.2-1.7 0.1-0.6 0.3-1.1 0.5-1.6 0.2-0.5 0.5-1 0.8-1.4s0.7-0.8 1.1-1.2c0.4-0.3 0.9-0.6 1.4-0.8 0.5-0.2 1-0.3 1.6-0.3 0.5 0 1 0.1 1.4 0.2 0.4 0.2 0.7 0.3 0.9 0.6s0.4 0.5 0.5 0.7C145.6 245.7 145.6 245.9 145.6 246.1zM142.6 244.7c-0.6 0-1.1 0.1-1.6 0.4 -0.5 0.2-0.9 0.6-1.3 1 -0.4 0.4-0.7 0.9-0.9 1.4 -0.2 0.5-0.4 1.1-0.5 1.7 0.9-0.1 1.7-0.2 2.4-0.4 0.7-0.1 1.2-0.3 1.7-0.4 0.5-0.2 0.8-0.3 1.1-0.5 0.3-0.2 0.5-0.4 0.7-0.5 0.2-0.2 0.3-0.4 0.3-0.6s0.1-0.4 0.1-0.6c0-0.2 0-0.3-0.1-0.5s-0.2-0.3-0.3-0.5c-0.2-0.1-0.4-0.3-0.6-0.4C143.3 244.7 143 244.7 142.6 244.7zM147.3 255l1.3-11h0.5c0.3 0 0.4 0.1 0.4 0.4l-0.3 3.3c0.5-1.2 1.1-2.1 1.7-2.8 0.6-0.6 1.3-1 2.1-1 0.3 0 0.6 0.1 0.9 0.2l-0.2 1c-0.3-0.1-0.7-0.2-0.9-0.2 -0.8 0-1.5 0.4-2.1 1.2 -0.6 0.8-1.2 1.9-1.6 3.3l-0.7 5.6H147.3zM161.6 255h-0.5c-0.1 0-0.2 0-0.3-0.1 -0.1-0.1-0.1-0.1-0.1-0.2l0.4-3.4c-0.3 0.6-0.6 1.1-0.9 1.6s-0.7 0.9-1.1 1.2 -0.8 0.6-1.2 0.8c-0.4 0.2-0.9 0.3-1.3 0.3 -0.5 0-0.9-0.1-1.2-0.3 -0.3-0.2-0.6-0.4-0.9-0.8 -0.2-0.3-0.4-0.7-0.5-1.2 -0.1-0.5-0.2-1-0.2-1.6 0-0.6 0.1-1.3 0.2-1.9s0.4-1.2 0.7-1.7c0.3-0.5 0.7-1.1 1.1-1.5 0.4-0.5 0.9-0.9 1.4-1.2 0.5-0.3 1-0.6 1.6-0.8 0.6-0.2 1.1-0.3 1.7-0.3 0.4 0 0.9 0 1.2 0.1 0.4 0.1 0.8 0.2 1.1 0.4L161.6 255zM157 254.3c0.4 0 0.8-0.1 1.2-0.4 0.4-0.2 0.8-0.6 1.2-1 0.4-0.4 0.7-0.9 1-1.6 0.3-0.6 0.6-1.3 0.9-2l0.6-4.5c-0.4-0.1-0.9-0.2-1.4-0.2 -0.5 0-1 0.1-1.4 0.2 -0.5 0.2-0.9 0.4-1.3 0.7 -0.4 0.3-0.8 0.6-1.1 1 -0.3 0.4-0.6 0.8-0.9 1.3 -0.2 0.5-0.4 1-0.6 1.5 -0.1 0.5-0.2 1.1-0.2 1.6 0 1 0.2 1.7 0.5 2.3C155.7 254 156.2 254.3 157 254.3zM165 255l1.3-11h0.5c0.2 0 0.4 0.1 0.4 0.4l-0.3 3.2c0.3-0.6 0.6-1.1 1-1.6 0.4-0.5 0.7-0.8 1.2-1.2 0.4-0.3 0.8-0.6 1.2-0.7 0.4-0.2 0.9-0.2 1.3-0.2 0.8 0 1.4 0.3 1.8 0.8 0.4 0.5 0.6 1.3 0.6 2.3 0 0.1 0 0.1 0 0.2 0 0.1 0 0.2 0 0.4s0 0.4-0.1 0.8 -0.1 0.8-0.2 1.4c-0.1 0.6-0.1 1.3-0.2 2.1s-0.2 1.9-0.4 3.1h-1l0.8-7c0-0.3 0.1-0.7 0.1-1 0-0.7-0.1-1.3-0.4-1.7 -0.3-0.4-0.7-0.6-1.3-0.6 -0.4 0-0.8 0.1-1.2 0.3 -0.4 0.2-0.8 0.5-1.2 0.9s-0.8 0.9-1.1 1.4c-0.3 0.5-0.6 1.2-0.9 1.8L166 255H165zM177.2 253.2c0 0 0-0.1 0-0.2 0-0.1 0-0.2 0-0.3 0-0.1 0-0.3 0.1-0.5s0.1-0.5 0.1-0.8l0.7-6.2h-1.4c-0.1 0-0.2-0.1-0.2-0.2l0.1-0.5 1.7-0.1 0.7-3.9c0-0.1 0-0.1 0.1-0.2 0.1-0.1 0.1-0.1 0.2-0.1h0.5l-0.5 4.2h3.2l-0.1 0.8h-3.2l-0.8 6.2c0 0.3-0.1 0.5-0.1 0.7s0 0.3-0.1 0.5c0 0.1 0 0.2 0 0.3s0 0.1 0 0.1c0 0.5 0.1 0.8 0.3 1 0.2 0.2 0.5 0.3 0.9 0.3 0.2 0 0.5 0 0.6-0.1 0.2-0.1 0.3-0.2 0.5-0.3 0.1-0.1 0.3-0.2 0.3-0.3s0.2-0.1 0.2-0.1c0 0 0.1 0 0.1 0s0 0 0.1 0.1l0.2 0.5c-0.3 0.3-0.6 0.6-1.1 0.8s-0.8 0.3-1.3 0.3c-0.6 0-1.1-0.2-1.4-0.5C177.3 254.4 177.2 253.8 177.2 253.2zM187.7 255l1.3-11h0.5c0.3 0 0.4 0.1 0.4 0.4l-0.3 3.2c0.3-0.6 0.6-1.1 1-1.6 0.4-0.5 0.7-0.8 1.1-1.2 0.4-0.3 0.8-0.6 1.2-0.7s0.9-0.2 1.3-0.2c0.8 0 1.4 0.3 1.8 0.8s0.6 1.3 0.6 2.3c0 0.1 0 0.1 0 0.2 0 0.1 0 0.2 0 0.4 0 0.2 0 0.4-0.1 0.8s-0.1 0.8-0.2 1.4c-0.1 0.6-0.1 1.3-0.2 2.1 -0.1 0.9-0.2 1.9-0.4 3.1h-1l0.8-7c0-0.3 0.1-0.7 0.1-1 0-0.7-0.1-1.3-0.4-1.7 -0.3-0.4-0.7-0.6-1.3-0.6 -0.4 0-0.8 0.1-1.2 0.3 -0.4 0.2-0.8 0.5-1.2 0.9 -0.4 0.4-0.8 0.9-1.1 1.4s-0.6 1.2-0.9 1.8l-0.7 5.8H187.7zM207.2 246.1c0 0.3 0 0.6-0.1 0.9s-0.2 0.5-0.4 0.8c-0.2 0.2-0.5 0.5-0.8 0.7 -0.4 0.2-0.8 0.4-1.4 0.6s-1.2 0.3-2 0.5c-0.8 0.1-1.7 0.3-2.7 0.4 0 0.2 0 0.3 0 0.5 0 0.2 0 0.3 0 0.4 0 1.1 0.2 1.9 0.7 2.6 0.5 0.6 1.2 0.9 2.2 0.9 0.4 0 0.7 0 1-0.1 0.3-0.1 0.6-0.2 0.8-0.3 0.2-0.1 0.5-0.3 0.6-0.4 0.2-0.1 0.4-0.3 0.5-0.4 0.1-0.1 0.3-0.2 0.4-0.3 0.1-0.1 0.2-0.1 0.3-0.1 0.1 0 0.2 0 0.2 0.1l0.2 0.3c-0.4 0.4-0.7 0.7-1 1 -0.3 0.3-0.7 0.5-1 0.7 -0.3 0.2-0.7 0.3-1.1 0.4s-0.8 0.1-1.2 0.1c-0.6 0-1.2-0.1-1.6-0.3 -0.5-0.2-0.9-0.5-1.2-0.9 -0.3-0.4-0.6-0.8-0.7-1.4 -0.2-0.5-0.3-1.1-0.3-1.8 0-0.5 0.1-1.1 0.2-1.7 0.1-0.6 0.3-1.1 0.5-1.6s0.5-1 0.8-1.4c0.3-0.4 0.7-0.8 1.1-1.2s0.9-0.6 1.4-0.8c0.5-0.2 1-0.3 1.6-0.3 0.5 0 1 0.1 1.4 0.2s0.7 0.3 0.9 0.6c0.2 0.2 0.4 0.5 0.5 0.7C207.1 245.7 207.2 245.9 207.2 246.1zM204.2 244.7c-0.6 0-1.1 0.1-1.6 0.4s-0.9 0.6-1.3 1c-0.4 0.4-0.7 0.9-0.9 1.4 -0.2 0.5-0.4 1.1-0.5 1.7 0.9-0.1 1.7-0.2 2.4-0.4s1.2-0.3 1.7-0.4 0.8-0.3 1.1-0.5 0.5-0.4 0.7-0.5c0.2-0.2 0.3-0.4 0.3-0.6s0.1-0.4 0.1-0.6c0-0.2 0-0.3-0.1-0.5 -0.1-0.2-0.2-0.3-0.3-0.5 -0.2-0.1-0.4-0.3-0.6-0.4C204.9 244.7 204.6 244.7 204.2 244.7zM211.5 244.1l-1.3 10.9h-1l1.3-10.9H211.5zM212.3 240.3c0 0.1 0 0.3-0.1 0.4 -0.1 0.1-0.1 0.2-0.2 0.3s-0.2 0.2-0.3 0.2c-0.1 0.1-0.2 0.1-0.3 0.1 -0.1 0-0.2 0-0.4-0.1 -0.1-0.1-0.2-0.1-0.3-0.2s-0.2-0.2-0.2-0.3c-0.1-0.1-0.1-0.2-0.1-0.4s0-0.3 0.1-0.4c0.1-0.1 0.1-0.2 0.2-0.3s0.2-0.2 0.3-0.2c0.1-0.1 0.2-0.1 0.4-0.1 0.1 0 0.2 0 0.3 0.1 0.1 0.1 0.2 0.1 0.3 0.2s0.2 0.2 0.2 0.3C212.3 240 212.3 240.2 212.3 240.3zM221.2 246.9c0 0.4-0.1 0.8-0.2 1.1 -0.1 0.3-0.2 0.6-0.4 0.9 -0.1 0.3-0.3 0.5-0.5 0.8 -0.2 0.2-0.3 0.5-0.5 0.7s-0.3 0.5-0.4 0.7c-0.1 0.2-0.1 0.5-0.1 0.7 0 0.2 0 0.4 0.1 0.6 0.1 0.2 0.2 0.4 0.3 0.5 0.1 0.2 0.3 0.4 0.4 0.5 0.2 0.2 0.3 0.4 0.4 0.6s0.2 0.4 0.3 0.6c0.1 0.2 0.1 0.5 0.1 0.8 0 0.5-0.1 0.9-0.4 1.3 -0.2 0.4-0.6 0.8-1 1.1 -0.4 0.3-0.9 0.6-1.5 0.8 -0.6 0.2-1.3 0.3-2 0.3 -0.6 0-1.1-0.1-1.6-0.2s-0.9-0.3-1.2-0.5c-0.3-0.2-0.6-0.5-0.8-0.8 -0.2-0.3-0.3-0.7-0.3-1.1 0-0.5 0.1-1 0.4-1.4s0.6-0.7 1.1-1c0.5-0.3 1-0.5 1.6-0.6s1.3-0.2 2-0.2c0.2 0 0.5 0 0.7 0 0.2 0 0.5 0 0.8 0.1 -0.1-0.2-0.2-0.3-0.3-0.5 -0.1-0.2-0.1-0.4-0.1-0.6 0-0.3 0-0.5 0.1-0.8 0.1-0.3 0.3-0.6 0.5-1 -0.3 0.2-0.6 0.4-1 0.5 -0.3 0.1-0.7 0.2-1.1 0.2 -0.4 0-0.8-0.1-1.2-0.2 -0.4-0.1-0.7-0.3-0.9-0.6 -0.3-0.3-0.5-0.6-0.6-1 -0.1-0.4-0.2-0.8-0.2-1.3 0-0.5 0.1-1 0.3-1.5 0.2-0.5 0.4-0.9 0.8-1.3 0.3-0.4 0.8-0.7 1.3-0.9 0.5-0.2 1.1-0.3 1.7-0.3 0.4 0 0.7 0 1.1 0.1s0.6 0.2 0.9 0.4h2.9l0 0.4c0 0.1 0 0.1-0.1 0.2s-0.1 0.1-0.2 0.1l-1.8 0.1c0.1 0.2 0.2 0.5 0.3 0.8C221.2 246.3 221.2 246.6 221.2 246.9zM220 255.6c0-0.4-0.1-0.7-0.2-0.9 -0.1-0.3-0.3-0.5-0.4-0.7l0 0c-0.4-0.1-0.7-0.1-1-0.1 -0.3 0-0.6 0-0.9 0 -0.7 0-1.4 0.1-1.9 0.2s-1 0.3-1.3 0.5c-0.4 0.2-0.6 0.5-0.8 0.8 -0.2 0.3-0.3 0.6-0.3 1 0 0.3 0.1 0.6 0.2 0.8s0.3 0.5 0.6 0.6 0.6 0.3 1 0.4c0.4 0.1 0.8 0.1 1.2 0.1 0.6 0 1.1-0.1 1.6-0.2 0.5-0.2 0.9-0.4 1.2-0.6s0.6-0.5 0.8-0.9S220 255.9 220 255.6zM217.3 250.3c0.5 0 0.9-0.1 1.3-0.3 0.4-0.2 0.7-0.5 0.9-0.8 0.3-0.3 0.5-0.7 0.6-1.1 0.1-0.4 0.2-0.8 0.2-1.2 0-0.8-0.2-1.3-0.6-1.7 -0.4-0.4-0.9-0.6-1.6-0.6 -0.5 0-0.9 0.1-1.3 0.3 -0.4 0.2-0.7 0.4-0.9 0.7 -0.3 0.3-0.4 0.7-0.6 1.1 -0.1 0.4-0.2 0.8-0.2 1.2 0 0.8 0.2 1.4 0.6 1.8S216.6 250.3 217.3 250.3zM223.6 255l1.9-16h1l-1 8.4c0.3-0.6 0.6-1 1-1.5 0.4-0.4 0.7-0.8 1.1-1.1 0.4-0.3 0.8-0.5 1.2-0.7s0.8-0.2 1.2-0.2c0.8 0 1.4 0.3 1.8 0.8 0.4 0.5 0.6 1.3 0.6 2.3 0 0.1 0 0.1 0 0.2 0 0.1 0 0.2 0 0.4 0 0.2 0 0.4-0.1 0.8 0 0.3-0.1 0.8-0.2 1.4 -0.1 0.6-0.1 1.3-0.2 2.2 -0.1 0.9-0.2 1.9-0.4 3.1h-1l0.8-7c0-0.3 0.1-0.7 0.1-1 0-0.7-0.1-1.3-0.4-1.7 -0.3-0.4-0.7-0.6-1.3-0.6 -0.4 0-0.8 0.1-1.2 0.3 -0.4 0.2-0.8 0.5-1.2 0.9 -0.4 0.4-0.8 0.8-1.1 1.4 -0.3 0.5-0.6 1.1-0.9 1.8l-0.7 5.9H223.6zM235 255l1.9-16h1l-1.1 8.8c0.3-0.6 0.6-1.1 1-1.6 0.4-0.5 0.7-0.9 1.1-1.2s0.8-0.6 1.2-0.8c0.4-0.2 0.9-0.3 1.3-0.3 0.5 0 0.9 0.1 1.3 0.3s0.7 0.4 0.9 0.8c0.2 0.3 0.4 0.7 0.5 1.2 0.1 0.5 0.2 1 0.2 1.6 0 0.6-0.1 1.1-0.2 1.7s-0.3 1.1-0.5 1.7c-0.2 0.5-0.5 1.1-0.8 1.5 -0.3 0.5-0.7 0.9-1.1 1.3 -0.4 0.4-0.8 0.6-1.3 0.9 -0.5 0.2-1 0.3-1.5 0.3 -0.6 0-1.2-0.1-1.7-0.4s-0.9-0.7-1.2-1.3l-0.2 1.2c0 0.1-0.1 0.2-0.1 0.3 -0.1 0.1-0.1 0.1-0.3 0.1H235zM241.1 244.7c-0.4 0-0.8 0.1-1.3 0.4 -0.4 0.2-0.8 0.6-1.2 1 -0.4 0.4-0.8 0.9-1.1 1.5 -0.3 0.6-0.6 1.3-0.9 2l-0.4 3.1c0.2 0.3 0.3 0.5 0.5 0.7s0.4 0.4 0.6 0.5c0.2 0.1 0.5 0.2 0.7 0.3 0.2 0.1 0.5 0.1 0.8 0.1 0.5 0 0.9-0.1 1.3-0.3 0.4-0.2 0.8-0.4 1.1-0.8 0.3-0.3 0.6-0.7 0.9-1.1 0.3-0.4 0.5-0.9 0.6-1.4s0.3-1 0.4-1.5c0.1-0.5 0.1-1 0.1-1.5 0-1-0.2-1.7-0.6-2.3S241.8 244.7 241.1 244.7zM249.7 255.1c-0.6 0-1.1-0.1-1.6-0.3s-0.9-0.5-1.2-0.9 -0.6-0.9-0.8-1.4 -0.3-1.2-0.3-1.9c0-0.9 0.1-1.7 0.4-2.6 0.3-0.8 0.6-1.5 1.1-2.2 0.5-0.6 1.1-1.1 1.7-1.5 0.7-0.4 1.4-0.6 2.2-0.6 0.6 0 1.1 0.1 1.6 0.3s0.9 0.5 1.2 0.9c0.3 0.4 0.6 0.9 0.8 1.4s0.3 1.2 0.3 1.9c0 0.9-0.1 1.7-0.4 2.6 -0.3 0.8-0.6 1.5-1.1 2.2s-1 1.1-1.7 1.5S250.5 255.1 249.7 255.1zM249.8 254.3c0.6 0 1.2-0.2 1.7-0.5 0.5-0.3 1-0.8 1.3-1.3s0.7-1.2 0.9-1.9c0.2-0.7 0.3-1.5 0.3-2.2 0-1.2-0.3-2.1-0.8-2.7s-1.2-1-2.2-1c-0.4 0-0.8 0.1-1.2 0.2s-0.7 0.4-1 0.6c-0.3 0.3-0.6 0.6-0.9 1 -0.3 0.4-0.5 0.8-0.6 1.2 -0.2 0.4-0.3 0.9-0.4 1.4s-0.1 1-0.1 1.5c0 1.2 0.3 2.1 0.8 2.7S248.9 254.3 249.8 254.3zM259.1 244.1l-0.8 7c0 0.3-0.1 0.7-0.1 1 0 0.7 0.1 1.3 0.4 1.7s0.7 0.6 1.3 0.6c0.4 0 0.8-0.1 1.2-0.3 0.4-0.2 0.8-0.5 1.2-0.9 0.4-0.4 0.8-0.8 1.1-1.4s0.6-1.1 0.9-1.8l0.7-5.8h1l-1.3 10.9h-0.5c-0.1 0-0.2 0-0.3-0.1 -0.1-0.1-0.1-0.2-0.1-0.3l0.3-3.1c-0.3 0.6-0.6 1.1-1 1.6 -0.4 0.5-0.7 0.8-1.1 1.1 -0.4 0.3-0.8 0.5-1.2 0.7 -0.4 0.2-0.9 0.2-1.3 0.2 -0.8 0-1.4-0.3-1.8-0.8 -0.4-0.5-0.6-1.3-0.6-2.3 0-0.1 0-0.1 0-0.2 0-0.1 0-0.2 0-0.4 0-0.2 0-0.4 0.1-0.8 0-0.3 0.1-0.8 0.2-1.3 0.1-0.6 0.1-1.3 0.2-2.1 0.1-0.9 0.2-1.9 0.4-3.1H259.1zM268.2 255l1.3-11h0.5c0.3 0 0.4 0.1 0.4 0.4l-0.3 3.3c0.5-1.2 1.1-2.1 1.7-2.8 0.6-0.6 1.3-1 2.1-1 0.3 0 0.6 0.1 0.9 0.2l-0.2 1c-0.3-0.1-0.7-0.2-0.9-0.2 -0.8 0-1.5 0.4-2.1 1.2 -0.6 0.8-1.2 1.9-1.6 3.3l-0.7 5.6H268.2zM286.5 254.1c-0.3 0.3-0.7 0.5-1 0.7 -0.3 0.2-0.7 0.3-1 0.3s-0.7 0.1-1.1 0.1c-0.6 0-1.2-0.1-1.6-0.3 -0.5-0.2-0.9-0.5-1.2-0.9s-0.5-0.9-0.7-1.4c-0.2-0.5-0.2-1.1-0.2-1.7 0-0.6 0.1-1.2 0.2-1.7s0.3-1.1 0.5-1.6c0.2-0.5 0.5-1 0.8-1.4 0.3-0.4 0.7-0.8 1.1-1.1 0.4-0.3 0.8-0.6 1.3-0.7s1-0.3 1.5-0.3c0.4 0 0.7 0 1 0.1 0.3 0.1 0.6 0.2 0.8 0.3 0.2 0.1 0.5 0.3 0.7 0.5 0.2 0.2 0.4 0.4 0.5 0.6l-0.3 0.4c-0.1 0.1-0.1 0.1-0.2 0.1 -0.1 0-0.2-0.1-0.3-0.2 -0.1-0.1-0.3-0.2-0.4-0.4s-0.4-0.3-0.7-0.4 -0.6-0.2-1.1-0.2c-0.6 0-1.2 0.2-1.7 0.5 -0.5 0.3-1 0.8-1.4 1.3 -0.4 0.6-0.7 1.2-0.9 1.9 -0.2 0.7-0.3 1.5-0.3 2.3 0 0.5 0.1 1 0.2 1.4 0.1 0.4 0.3 0.8 0.5 1.1 0.2 0.3 0.5 0.6 0.9 0.7 0.4 0.2 0.8 0.3 1.3 0.3 0.4 0 0.7 0 1-0.1s0.6-0.2 0.8-0.3 0.4-0.3 0.6-0.4c0.2-0.1 0.3-0.3 0.5-0.4 0.1-0.1 0.3-0.2 0.4-0.3 0.1-0.1 0.2-0.1 0.3-0.1 0.1 0 0.2 0 0.2 0.1l0.2 0.3C287.2 253.4 286.8 253.8 286.5 254.1zM293 255.1c-0.6 0-1.1-0.1-1.6-0.3s-0.9-0.5-1.2-0.9c-0.3-0.4-0.6-0.9-0.8-1.4 -0.2-0.6-0.3-1.2-0.3-1.9 0-0.9 0.1-1.7 0.4-2.6 0.3-0.8 0.6-1.5 1.1-2.2 0.5-0.6 1.1-1.1 1.7-1.5 0.7-0.4 1.4-0.6 2.2-0.6 0.6 0 1.1 0.1 1.6 0.3s0.9 0.5 1.2 0.9c0.3 0.4 0.6 0.9 0.8 1.4 0.2 0.6 0.3 1.2 0.3 1.9 0 0.9-0.1 1.7-0.4 2.6 -0.3 0.8-0.6 1.5-1.1 2.2s-1 1.1-1.7 1.5C294.5 255 293.8 255.1 293 255.1zM293 254.3c0.6 0 1.2-0.2 1.7-0.5 0.5-0.3 1-0.8 1.3-1.3 0.4-0.6 0.7-1.2 0.9-1.9 0.2-0.7 0.3-1.5 0.3-2.2 0-1.2-0.3-2.1-0.8-2.7 -0.5-0.6-1.2-1-2.2-1 -0.4 0-0.8 0.1-1.2 0.2 -0.4 0.2-0.7 0.4-1 0.6 -0.3 0.3-0.6 0.6-0.9 1s-0.5 0.8-0.6 1.2c-0.2 0.4-0.3 0.9-0.4 1.4s-0.1 1-0.1 1.5c0 1.2 0.3 2.1 0.8 2.7C291.4 254 292.1 254.3 293 254.3zM300.2 255l1.3-11h0.5c0.3 0 0.4 0.1 0.4 0.4l-0.3 3.1c0.6-1.1 1.2-2 2-2.6s1.5-0.9 2.4-0.9c0.7 0 1.3 0.2 1.6 0.7s0.5 1.1 0.5 2c0 0.2 0 0.5 0 0.8 0.3-0.6 0.6-1.1 0.9-1.5s0.7-0.8 1.1-1.1c0.4-0.3 0.8-0.5 1.2-0.6 0.4-0.1 0.8-0.2 1.2-0.2 0.8 0 1.3 0.2 1.7 0.7s0.5 1.2 0.5 2.1c0 0.1 0 0.2 0 0.2 0 0.1 0 0.2 0 0.4 0 0.2 0 0.5-0.1 0.8 0 0.3-0.1 0.8-0.2 1.4s-0.2 1.3-0.3 2.2c-0.1 0.9-0.2 1.9-0.4 3.2h-1l0.8-7c0-0.2 0.1-0.4 0.1-0.6 0-0.2 0-0.4 0-0.6 0-0.7-0.1-1.2-0.3-1.5 -0.2-0.3-0.6-0.5-1.2-0.5 -0.4 0-0.7 0.1-1.1 0.2 -0.4 0.2-0.7 0.4-1.1 0.7 -0.4 0.3-0.7 0.7-1 1.2 -0.3 0.5-0.6 1.1-0.9 1.8l-0.7 6.2h-1l0.8-7c0.1-0.5 0.1-1 0.1-1.4 0-0.6-0.1-1.1-0.3-1.4 -0.2-0.3-0.6-0.5-1.1-0.5 -0.8 0-1.6 0.4-2.3 1.1 -0.7 0.8-1.3 1.8-1.9 3.2l-0.7 5.9H300.2zM316.8 258.9l1.8-14.8h0.5c0.3 0 0.4 0.1 0.4 0.4l-0.4 3.4c0.3-0.6 0.6-1.1 1-1.6 0.4-0.5 0.7-0.9 1.1-1.3 0.4-0.3 0.8-0.6 1.2-0.8 0.4-0.2 0.9-0.3 1.3-0.3 0.5 0 0.9 0.1 1.3 0.3s0.7 0.4 0.9 0.8c0.2 0.3 0.4 0.7 0.5 1.2s0.2 1 0.2 1.6c0 0.6-0.1 1.1-0.2 1.7s-0.3 1.1-0.5 1.7c-0.2 0.5-0.5 1.1-0.8 1.5 -0.3 0.5-0.7 0.9-1.1 1.3 -0.4 0.4-0.8 0.6-1.3 0.9 -0.5 0.2-1 0.3-1.5 0.3 -0.6 0-1.1-0.1-1.6-0.4s-0.9-0.7-1.2-1.2l-0.6 5.3H316.8zM323.4 244.7c-0.4 0-0.8 0.1-1.3 0.3 -0.4 0.2-0.8 0.6-1.2 1 -0.4 0.4-0.8 0.9-1.1 1.5 -0.3 0.6-0.6 1.3-0.9 2l-0.4 3.1c0.3 0.6 0.7 1 1.2 1.2 0.5 0.2 1 0.4 1.5 0.4 0.5 0 0.9-0.1 1.3-0.3 0.4-0.2 0.8-0.4 1.1-0.8 0.3-0.3 0.6-0.7 0.9-1.1 0.3-0.4 0.5-0.9 0.6-1.4 0.2-0.5 0.3-1 0.4-1.5 0.1-0.5 0.1-1 0.1-1.5 0-1-0.2-1.7-0.6-2.3C324.7 245 324.1 244.7 323.4 244.7zM330.5 244.1l-0.8 7c0 0.3-0.1 0.7-0.1 1 0 0.7 0.1 1.3 0.4 1.7s0.7 0.6 1.3 0.6c0.4 0 0.8-0.1 1.2-0.3 0.4-0.2 0.8-0.5 1.2-0.9 0.4-0.4 0.8-0.8 1.1-1.4s0.6-1.1 0.9-1.8l0.7-5.8h1l-1.3 10.9h-0.5c-0.1 0-0.2 0-0.3-0.1 -0.1-0.1-0.1-0.2-0.1-0.3l0.3-3.1c-0.3 0.6-0.6 1.1-1 1.6 -0.4 0.5-0.7 0.8-1.1 1.1s-0.8 0.5-1.2 0.7 -0.9 0.2-1.3 0.2c-0.8 0-1.4-0.3-1.8-0.8 -0.4-0.5-0.6-1.3-0.6-2.3 0-0.1 0-0.1 0-0.2s0-0.2 0-0.4c0-0.2 0-0.4 0.1-0.8 0-0.3 0.1-0.8 0.2-1.3s0.1-1.3 0.2-2.1c0.1-0.9 0.2-1.9 0.4-3.1H330.5zM340.5 253.2c0 0 0-0.1 0-0.2 0-0.1 0-0.2 0-0.3 0-0.1 0-0.3 0.1-0.5s0.1-0.5 0.1-0.8l0.7-6.2H340c-0.1 0-0.2-0.1-0.2-0.2l0.1-0.5 1.7-0.1 0.7-3.9c0-0.1 0-0.1 0.1-0.2 0.1-0.1 0.1-0.1 0.2-0.1h0.5l-0.5 4.2h3.2l-0.1 0.8h-3.2l-0.8 6.2c0 0.3-0.1 0.5-0.1 0.7s0 0.3-0.1 0.5c0 0.1 0 0.2 0 0.3s0 0.1 0 0.1c0 0.5 0.1 0.8 0.3 1 0.2 0.2 0.5 0.3 0.9 0.3 0.2 0 0.5 0 0.6-0.1 0.2-0.1 0.3-0.2 0.5-0.3 0.1-0.1 0.3-0.2 0.3-0.3s0.2-0.1 0.2-0.1c0 0 0.1 0 0.1 0s0 0 0.1 0.1l0.2 0.5c-0.3 0.3-0.6 0.6-1.1 0.8s-0.8 0.3-1.3 0.3c-0.6 0-1.1-0.2-1.4-0.5C340.7 254.4 340.5 253.8 340.5 253.2zM355 246.1c0 0.3 0 0.6-0.1 0.9s-0.2 0.5-0.4 0.8c-0.2 0.2-0.5 0.5-0.8 0.7 -0.4 0.2-0.8 0.4-1.4 0.6s-1.2 0.3-2 0.5c-0.8 0.1-1.7 0.3-2.7 0.4 0 0.2 0 0.3 0 0.5 0 0.2 0 0.3 0 0.4 0 1.1 0.2 1.9 0.7 2.6 0.5 0.6 1.2 0.9 2.2 0.9 0.4 0 0.7 0 1-0.1 0.3-0.1 0.6-0.2 0.8-0.3 0.2-0.1 0.5-0.3 0.6-0.4 0.2-0.1 0.4-0.3 0.5-0.4 0.1-0.1 0.3-0.2 0.4-0.3 0.1-0.1 0.2-0.1 0.3-0.1 0.1 0 0.2 0 0.2 0.1l0.2 0.3c-0.4 0.4-0.7 0.7-1 1 -0.3 0.3-0.7 0.5-1 0.7 -0.3 0.2-0.7 0.3-1.1 0.4s-0.8 0.1-1.2 0.1c-0.6 0-1.2-0.1-1.6-0.3 -0.5-0.2-0.9-0.5-1.2-0.9 -0.3-0.4-0.6-0.8-0.7-1.4 -0.2-0.5-0.3-1.1-0.3-1.8 0-0.5 0.1-1.1 0.2-1.7 0.1-0.6 0.3-1.1 0.5-1.6s0.5-1 0.8-1.4c0.3-0.4 0.7-0.8 1.1-1.2s0.9-0.6 1.4-0.8c0.5-0.2 1-0.3 1.6-0.3 0.5 0 1 0.1 1.4 0.2s0.7 0.3 0.9 0.6c0.2 0.2 0.4 0.5 0.5 0.7C354.9 245.7 355 245.9 355 246.1zM352 244.7c-0.6 0-1.1 0.1-1.6 0.4s-0.9 0.6-1.3 1c-0.4 0.4-0.7 0.9-0.9 1.4 -0.2 0.5-0.4 1.1-0.5 1.7 0.9-0.1 1.7-0.2 2.4-0.4s1.2-0.3 1.7-0.4 0.8-0.3 1.1-0.5 0.5-0.4 0.7-0.5c0.2-0.2 0.3-0.4 0.3-0.6s0.1-0.4 0.1-0.6c0-0.2 0-0.3-0.1-0.5 -0.1-0.2-0.2-0.3-0.3-0.5 -0.2-0.1-0.4-0.3-0.6-0.4C352.7 244.7 352.4 244.7 352 244.7zM356.7 255l1.3-11h0.5c0.3 0 0.4 0.1 0.4 0.4l-0.3 3.3c0.5-1.2 1.1-2.1 1.7-2.8 0.6-0.6 1.3-1 2.1-1 0.3 0 0.6 0.1 0.9 0.2l-0.2 1c-0.3-0.1-0.7-0.2-0.9-0.2 -0.8 0-1.5 0.4-2.1 1.2 -0.6 0.8-1.2 1.9-1.6 3.3l-0.7 5.6H356.7zM369.2 253.2c0 0 0-0.1 0-0.2s0-0.2 0-0.3 0-0.3 0.1-0.5c0-0.2 0.1-0.5 0.1-0.8l0.7-6.2h-1.4c-0.1 0-0.2-0.1-0.2-0.2l0.1-0.5 1.7-0.1 0.7-3.9c0-0.1 0-0.1 0.1-0.2 0.1-0.1 0.1-0.1 0.2-0.1h0.5l-0.5 4.2h3.2l-0.1 0.8h-3.2l-0.8 6.2c0 0.3-0.1 0.5-0.1 0.7 0 0.2 0 0.3-0.1 0.5s0 0.2 0 0.3 0 0.1 0 0.1c0 0.5 0.1 0.8 0.3 1 0.2 0.2 0.5 0.3 0.9 0.3 0.2 0 0.5 0 0.6-0.1s0.4-0.2 0.5-0.3c0.1-0.1 0.3-0.2 0.3-0.3s0.2-0.1 0.2-0.1 0.1 0 0.1 0c0 0 0 0 0.1 0.1l0.2 0.5c-0.3 0.3-0.6 0.6-1.1 0.8 -0.4 0.2-0.8 0.3-1.3 0.3 -0.6 0-1.1-0.2-1.4-0.5C369.4 254.4 369.2 253.8 369.2 253.2zM375.5 255l1.3-11h0.5c0.3 0 0.4 0.1 0.4 0.4l-0.3 3.3c0.5-1.2 1.1-2.1 1.7-2.8 0.6-0.6 1.3-1 2.1-1 0.3 0 0.6 0.1 0.9 0.2l-0.2 1c-0.3-0.1-0.7-0.2-0.9-0.2 -0.8 0-1.5 0.4-2.1 1.2 -0.6 0.8-1.2 1.9-1.6 3.3l-0.7 5.6H375.5zM386.1 255.1c-0.6 0-1.1-0.1-1.6-0.3s-0.9-0.5-1.2-0.9c-0.3-0.4-0.6-0.9-0.8-1.4 -0.2-0.6-0.3-1.2-0.3-1.9 0-0.9 0.1-1.7 0.4-2.6 0.3-0.8 0.6-1.5 1.1-2.2 0.5-0.6 1.1-1.1 1.7-1.5 0.7-0.4 1.4-0.6 2.2-0.6 0.6 0 1.1 0.1 1.6 0.3s0.9 0.5 1.2 0.9c0.3 0.4 0.6 0.9 0.8 1.4 0.2 0.6 0.3 1.2 0.3 1.9 0 0.9-0.1 1.7-0.4 2.6 -0.3 0.8-0.6 1.5-1.1 2.2s-1 1.1-1.7 1.5C387.7 255 386.9 255.1 386.1 255.1zM386.2 254.3c0.6 0 1.2-0.2 1.7-0.5 0.5-0.3 1-0.8 1.3-1.3 0.4-0.6 0.7-1.2 0.9-1.9 0.2-0.7 0.3-1.5 0.3-2.2 0-1.2-0.3-2.1-0.8-2.7 -0.5-0.6-1.2-1-2.2-1 -0.4 0-0.8 0.1-1.2 0.2 -0.4 0.2-0.7 0.4-1 0.6 -0.3 0.3-0.6 0.6-0.9 1s-0.5 0.8-0.6 1.2c-0.2 0.4-0.3 0.9-0.4 1.4s-0.1 1-0.1 1.5c0 1.2 0.3 2.1 0.8 2.7C384.6 254 385.3 254.3 386.2 254.3zM393.6 255l1.9-16h1l-1.9 16H393.6zM398.5 255l1.9-16h1l-1.9 16H398.5z"/></svg>
